<?xml version="1.0" encoding="UTF-8"?>
<!-- Generator: visioncortex VTracer -->
<svg id="svg" version="1.1" xmlns="http://www.w3.org/2000/svg" style="display: block;" viewBox="0 0 110 112"><path d="M0 0 C4.62 0 9.24 0 14 0 C14 0.66 14 1.32 14 2 C18.29 2 22.58 2 27 2 C27 3.32 27 4.64 27 6 C28.65 6 30.3 6 32 6 C32 7.65 32 9.3 32 11 C30.35 11 28.7 11 27 11 C27 12.32 27 13.64 27 15 C25.68 15 24.36 15 23 15 C23 16.65 23 18.3 23 20 C25.97 20 28.94 20 32 20 C32 21.32 32 22.64 32 24 C34.97 24 37.94 24 41 24 C41 25.65 41 27.3 41 29 C39.35 29 37.7 29 36 29 C36 31.64 36 34.28 36 37 C37.65 37 39.3 37 41 37 C41 42.94 41 48.88 41 55 C39.35 55 37.7 55 36 55 C36 57.97 36 60.94 36 64 C34.68 64 33.36 64 32 64 C32 65.65 32 67.3 32 69 C30.35 69 28.7 69 27 69 C27 70.32 27 71.64 27 73 C25.68 73 24.36 73 23 73 C23 73.66 23 74.32 23 75 C14.09 75 5.18 75 -4 75 C-4 74.34 -4 73.68 -4 73 C-5.65 73 -7.3 73 -9 73 C-9 71.68 -9 70.36 -9 69 C-10.32 69 -11.64 69 -13 69 C-13 67.35 -13 65.7 -13 64 C-14.65 64 -16.3 64 -18 64 C-18 61.03 -18 58.06 -18 55 C-19.32 55 -20.64 55 -22 55 C-22 49.06 -22 43.12 -22 37 C-20.68 37 -19.36 37 -18 37 C-18 34.36 -18 31.72 -18 29 C-16.35 29 -14.7 29 -13 29 C-13 27.35 -13 25.7 -13 24 C-11.68 24 -10.36 24 -9 24 C-9 22.68 -9 21.36 -9 20 C-7.35 20 -5.7 20 -4 20 C-4 18.35 -4 16.7 -4 15 C-5.65 15 -7.3 15 -9 15 C-9 13.68 -9 12.36 -9 11 C-10.32 11 -11.64 11 -13 11 C-13 9.35 -13 7.7 -13 6 C-11.68 6 -10.36 6 -9 6 C-9 4.68 -9 3.36 -9 2 C-6.03 2 -3.06 2 0 2 C0 1.34 0 0.68 0 0 Z " transform="translate(42,20)" style="fill: #BBCC33;"/><path d="M0 0 C1.32 0 2.64 0 4 0 C4 1.65 4 3.3 4 5 C5.65 5 7.3 5 9 5 C9 9.29 9 13.58 9 18 C10.32 18 11.64 18 13 18 C13 19.65 13 21.3 13 23 C14.65 23 16.3 23 18 23 C18 24.32 18 25.64 18 27 C19.32 27 20.64 27 22 27 C22 28.65 22 30.3 22 32 C23.65 32 25.3 32 27 32 C27 29.03 27 26.06 27 23 C28.32 23 29.64 23 31 23 C31 21.35 31 19.7 31 18 C33.97 18 36.94 18 40 18 C40 19.65 40 21.3 40 23 C42.97 23 45.94 23 49 23 C49 21.35 49 19.7 49 18 C50.65 18 52.3 18 54 18 C54 16.68 54 15.36 54 14 C55.32 14 56.64 14 58 14 C58 9.38 58 4.76 58 0 C59.65 0 61.3 0 63 0 C63 5.94 63 11.88 63 18 C61.35 18 59.7 18 58 18 C58 20.97 58 23.94 58 27 C56.68 27 55.36 27 54 27 C54 28.65 54 30.3 54 32 C52.35 32 50.7 32 49 32 C49 33.32 49 34.64 49 36 C47.68 36 46.36 36 45 36 C45 36.66 45 37.32 45 38 C36.09 38 27.18 38 18 38 C18 37.34 18 36.68 18 36 C16.35 36 14.7 36 13 36 C13 34.68 13 33.36 13 32 C11.68 32 10.36 32 9 32 C9 30.35 9 28.7 9 27 C7.35 27 5.7 27 4 27 C4 24.03 4 21.06 4 18 C2.68 18 1.36 18 0 18 C0 12.06 0 6.12 0 0 Z " transform="translate(20,57)" style="fill: #7B8F2F;"/><path d="M0 0 C2.97 0 5.94 0 9 0 C9 1.65 9 3.3 9 5 C10.65 5 12.3 5 14 5 C14 7.64 14 10.28 14 13 C15.32 13 16.64 13 18 13 C18 17.62 18 22.24 18 27 C16.68 27 15.36 27 14 27 C14 28.32 14 29.64 14 31 C12.35 31 10.7 31 9 31 C9 32.65 9 34.3 9 36 C6.03 36 3.06 36 0 36 C0 34.35 0 32.7 0 31 C-2.97 31 -5.94 31 -9 31 C-9 32.65 -9 34.3 -9 36 C-10.32 36 -11.64 36 -13 36 C-13 33.03 -13 30.06 -13 27 C-8.71 27 -4.42 27 0 27 C0 25.35 0 23.7 0 22 C1.65 22 3.3 22 5 22 C5 19.03 5 16.06 5 13 C3.35 13 1.7 13 0 13 C0 11.68 0 10.36 0 9 C-5.94 9 -11.88 9 -18 9 C-18 7.68 -18 6.36 -18 5 C-12.06 5 -6.12 5 0 5 C0 3.35 0 1.7 0 0 Z " transform="translate(60,44)" style="fill: #B6C832;"/><path d="M0 0 C4.62 0 9.24 0 14 0 C14 0.66 14 1.32 14 2 C18.29 2 22.58 2 27 2 C27 3.32 27 4.64 27 6 C28.65 6 30.3 6 32 6 C32 7.65 32 9.3 32 11 C30.35 11 28.7 11 27 11 C27 12.32 27 13.64 27 15 C15.12 15 3.24 15 -9 15 C-9 13.68 -9 12.36 -9 11 C-10.32 11 -11.64 11 -13 11 C-13 9.35 -13 7.7 -13 6 C-11.68 6 -10.36 6 -9 6 C-9 4.68 -9 3.36 -9 2 C-6.03 2 -3.06 2 0 2 C0 1.34 0 0.68 0 0 Z " transform="translate(42,20)" style="fill: #B1C331;"/><path d="M0 0 C8.91 0 17.82 0 27 0 C27 1.65 27 3.3 27 5 C29.97 5 32.94 5 36 5 C36 6.32 36 7.64 36 9 C38.97 9 41.94 9 45 9 C45 10.65 45 12.3 45 14 C43.35 14 41.7 14 40 14 C40 16.64 40 19.28 40 22 C38.68 22 37.36 22 36 22 C36 19.36 36 16.72 36 14 C34.35 14 32.7 14 31 14 C31 12.35 31 10.7 31 9 C28.03 9 25.06 9 22 9 C22 7.68 22 6.36 22 5 C16.06 5 10.12 5 4 5 C4 6.32 4 7.64 4 9 C1.03 9 -1.94 9 -5 9 C-5 7.68 -5 6.36 -5 5 C-3.35 5 -1.7 5 0 5 C0 3.35 0 1.7 0 0 Z " transform="translate(38,35)" style="fill: #225500;"/><path d="M0 0 C2.97 0 5.94 0 9 0 C9 1.32 9 2.64 9 4 C10.65 4 12.3 4 14 4 C14 6.97 14 9.94 14 13 C12.35 13 10.7 13 9 13 C9 14.65 9 16.3 9 18 C4.71 18 0.42 18 -4 18 C-4 16.35 -4 14.7 -4 13 C-5.65 13 -7.3 13 -9 13 C-9 11.68 -9 10.36 -9 9 C-7.35 9 -5.7 9 -4 9 C-4 7.35 -4 5.7 -4 4 C-2.68 4 -1.36 4 0 4 C0 2.68 0 1.36 0 0 Z " transform="translate(51,53)" style="fill: #B92929;"/><path d="M0 0 C4.62 0 9.24 0 14 0 C14 0.66 14 1.32 14 2 C18.29 2 22.58 2 27 2 C27 3.32 27 4.64 27 6 C15.12 6 3.24 6 -9 6 C-9 4.68 -9 3.36 -9 2 C-6.03 2 -3.06 2 0 2 C0 1.34 0 0.68 0 0 Z " transform="translate(42,20)" style="fill: #B5C05A;"/><path d="M0 0 C5.94 0 11.88 0 18 0 C18 2.97 18 5.94 18 9 C12.06 9 6.12 9 0 9 C0 6.03 0 3.06 0 0 Z " transform="translate(42,40)" style="fill: #446622;"/><path d="M0 0 C1.65 0 3.3 0 5 0 C5 5.94 5 11.88 5 18 C3.35 18 1.7 18 0 18 C0 20.97 0 23.94 0 27 C-1.32 27 -2.64 27 -4 27 C-4 22.71 -4 18.42 -4 14 C-2.68 14 -1.36 14 0 14 C0 9.38 0 4.76 0 0 Z " transform="translate(78,57)" style="fill: #4E6D24;"/><path d="M0 0 C2.97 0 5.94 0 9 0 C9 1.65 9 3.3 9 5 C10.65 5 12.3 5 14 5 C14 6.32 14 7.64 14 9 C9.38 9 4.76 9 0 9 C0 10.65 0 12.3 0 14 C-1.32 14 -2.64 14 -4 14 C-4 11.03 -4 8.06 -4 5 C-2.68 5 -1.36 5 0 5 C0 3.35 0 1.7 0 0 Z " transform="translate(51,75)" style="fill: #446622;"/><path d="M0 0 C2.97 0 5.94 0 9 0 C9 1.32 9 2.64 9 4 C10.65 4 12.3 4 14 4 C14 5.65 14 7.3 14 9 C9.38 9 4.76 9 0 9 C0 6.03 0 3.06 0 0 Z " transform="translate(51,53)" style="fill: #CC3333;"/><path d="M0 0 C4.29 0 8.58 0 13 0 C13 1.65 13 3.3 13 5 C10.03 5 7.06 5 4 5 C4 7.64 4 10.28 4 13 C2.68 13 1.36 13 0 13 C0 8.71 0 4.42 0 0 Z " transform="translate(29,44)" style="fill: #EEEE77;"/><path d="M0 0 C5.94 0 11.88 0 18 0 C18 1.65 18 3.3 18 5 C12.06 5 6.12 5 0 5 C0 3.35 0 1.7 0 0 Z " transform="translate(56,26)" style="fill: #EEEE77;"/><path d="M0 0 C1.32 0 2.64 0 4 0 C4 4.62 4 9.24 4 14 C2.68 14 1.36 14 0 14 C0 12.35 0 10.7 0 9 C-1.65 9 -3.3 9 -5 9 C-5 7.68 -5 6.36 -5 5 C-3.35 5 -1.7 5 0 5 C0 3.35 0 1.7 0 0 Z " transform="translate(47,57)" style="fill: #9A2222;"/><path d="M0 0 C1.32 0 2.64 0 4 0 C4 5.94 4 11.88 4 18 C2.68 18 1.36 18 0 18 C0 12.06 0 6.12 0 0 Z " transform="translate(20,57)" style="fill: #446622;"/><path d="M0 0 C5.94 0 11.88 0 18 0 C18 1.32 18 2.64 18 4 C12.06 4 6.12 4 0 4 C0 2.68 0 1.36 0 0 Z " transform="translate(42,49)" style="fill: #EEEE77;"/><path d="M0 0 C5.94 0 11.88 0 18 0 C18 1.32 18 2.64 18 4 C12.06 4 6.12 4 0 4 C0 2.68 0 1.36 0 0 Z " transform="translate(42,40)" style="fill: #EEEE77;"/><path d="M0 0 C1.65 0 3.3 0 5 0 C5 4.29 5 8.58 5 13 C3.35 13 1.7 13 0 13 C0 8.71 0 4.42 0 0 Z " transform="translate(24,62)" style="fill: #889933;"/><path d="M0 0 C4.29 0 8.58 0 13 0 C13 1.65 13 3.3 13 5 C8.71 5 4.42 5 0 5 C0 3.35 0 1.7 0 0 Z " transform="translate(29,26)" style="fill: #EEEE77;"/><path d="M0 0 C2.97 0 5.94 0 9 0 C9 1.32 9 2.64 9 4 C7.35 4 5.7 4 4 4 C4 5.65 4 7.3 4 9 C2.68 9 1.36 9 0 9 C0 6.03 0 3.06 0 0 Z " transform="translate(47,80)" style="fill: #445522;"/><path d="M0 0 C1.32 0 2.64 0 4 0 C4 2.97 4 5.94 4 9 C1.03 9 -1.94 9 -5 9 C-5 7.68 -5 6.36 -5 5 C-3.35 5 -1.7 5 0 5 C0 3.35 0 1.7 0 0 Z " transform="translate(38,35)" style="fill: #446622;"/><path d="M0 0 C4.29 0 8.58 0 13 0 C13 1.32 13 2.64 13 4 C8.71 4 4.42 4 0 4 C0 2.68 0 1.36 0 0 Z " transform="translate(56,22)" style="fill: #446622;"/><path d="M0 0 C2.97 0 5.94 0 9 0 C9 1.65 9 3.3 9 5 C6.03 5 3.06 5 0 5 C0 3.35 0 1.7 0 0 Z " transform="translate(51,84)" style="fill: #BBCC33;"/><path d="M0 0 C1.65 0 3.3 0 5 0 C5 2.97 5 5.94 5 9 C3.35 9 1.7 9 0 9 C0 6.03 0 3.06 0 0 Z " transform="translate(24,75)" style="fill: #446622;"/><path d="M0 0 C1.65 0 3.3 0 5 0 C5 2.97 5 5.94 5 9 C3.35 9 1.7 9 0 9 C0 6.03 0 3.06 0 0 Z " transform="translate(42,71)" style="fill: #445522;"/><path d="M0 0 C2.97 0 5.94 0 9 0 C9 1.65 9 3.3 9 5 C6.03 5 3.06 5 0 5 C0 3.35 0 1.7 0 0 Z " transform="translate(74,35)" style="fill: #225500;"/><path d="M0 0 C1.65 0 3.3 0 5 0 C5 2.64 5 5.28 5 8 C3.35 8 1.7 8 0 8 C0 5.36 0 2.72 0 0 Z " transform="translate(24,49)" style="fill: #446622;"/><path d="M0 0 C1.32 0 2.64 0 4 0 C4 2.97 4 5.94 4 9 C2.68 9 1.36 9 0 9 C0 6.03 0 3.06 0 0 Z " transform="translate(74,75)" style="fill: #446622;"/><path d="M0 0 C1.32 0 2.64 0 4 0 C4 2.97 4 5.94 4 9 C2.68 9 1.36 9 0 9 C0 6.03 0 3.06 0 0 Z " transform="translate(74,62)" style="fill: #EEEE77;"/><path d="M0 0 C2.97 0 5.94 0 9 0 C9 1.32 9 2.64 9 4 C6.03 4 3.06 4 0 4 C0 2.68 0 1.36 0 0 Z " transform="translate(51,53)" style="fill: #B92929;"/><path d="M0 0 C2.97 0 5.94 0 9 0 C9 1.32 9 2.64 9 4 C6.03 4 3.06 4 0 4 C0 2.68 0 1.36 0 0 Z " transform="translate(33,22)" style="fill: #446622;"/><path d="M0 0 C1.32 0 2.64 0 4 0 C4 2.64 4 5.28 4 8 C2.68 8 1.36 8 0 8 C0 5.36 0 2.72 0 0 Z " transform="translate(74,49)" style="fill: #446622;"/><path d="M0 0 C1.32 0 2.64 0 4 0 C4 2.64 4 5.28 4 8 C2.68 8 1.36 8 0 8 C0 5.36 0 2.72 0 0 Z " transform="translate(29,49)" style="fill: #EEEE77;"/><path d="M0 0 C1.65 0 3.3 0 5 0 C5 1.65 5 3.3 5 5 C3.35 5 1.7 5 0 5 C0 3.35 0 1.7 0 0 Z " transform="translate(69,84)" style="fill: #446622;"/><path d="M0 0 C1.65 0 3.3 0 5 0 C5 1.65 5 3.3 5 5 C3.35 5 1.7 5 0 5 C0 3.35 0 1.7 0 0 Z " transform="translate(51,66)" style="fill: #882222;"/><path d="M0 0 C1.65 0 3.3 0 5 0 C5 1.65 5 3.3 5 5 C3.35 5 1.7 5 0 5 C0 3.35 0 1.7 0 0 Z " transform="translate(60,57)" style="fill: #CC3333;"/><path d="M0 0 C1.65 0 3.3 0 5 0 C5 1.65 5 3.3 5 5 C3.35 5 1.7 5 0 5 C0 3.35 0 1.7 0 0 Z " transform="translate(24,57)" style="fill: #EEEE77;"/><path d="M0 0 C1.65 0 3.3 0 5 0 C5 1.65 5 3.3 5 5 C3.35 5 1.7 5 0 5 C0 3.35 0 1.7 0 0 Z " transform="translate(69,44)" style="fill: #446622;"/><path d="M0 0 C1.65 0 3.3 0 5 0 C5 1.65 5 3.3 5 5 C3.35 5 1.7 5 0 5 C0 3.35 0 1.7 0 0 Z " transform="translate(60,35)" style="fill: #446622;"/><path d="M0 0 C1.65 0 3.3 0 5 0 C5 1.65 5 3.3 5 5 C3.35 5 1.7 5 0 5 C0 3.35 0 1.7 0 0 Z " transform="translate(69,26)" style="fill: #446622;"/><path d="M0 0 C1.65 0 3.3 0 5 0 C5 1.32 5 2.64 5 4 C3.35 4 1.7 4 0 4 C0 2.68 0 1.36 0 0 Z " transform="translate(33,89)" style="fill: #446622;"/><path d="M0 0 C1.32 0 2.64 0 4 0 C4 1.65 4 3.3 4 5 C2.68 5 1.36 5 0 5 C0 3.35 0 1.7 0 0 Z " transform="translate(29,84)" style="fill: #446622;"/><path d="M0 0 C1.65 0 3.3 0 5 0 C5 1.32 5 2.64 5 4 C3.35 4 1.7 4 0 4 C0 2.68 0 1.36 0 0 Z " transform="translate(69,71)" style="fill: #EEEE77;"/><path d="M0 0 C1.32 0 2.64 0 4 0 C4 1.65 4 3.3 4 5 C2.68 5 1.36 5 0 5 C0 3.35 0 1.7 0 0 Z " transform="translate(56,66)" style="fill: #AA2222;"/><path d="M0 0 C1.32 0 2.64 0 4 0 C4 1.65 4 3.3 4 5 C2.68 5 1.36 5 0 5 C0 3.35 0 1.7 0 0 Z " transform="translate(47,66)" style="fill: #446622;"/><path d="M0 0 C1.65 0 3.3 0 5 0 C5 1.32 5 2.64 5 4 C3.35 4 1.7 4 0 4 C0 2.68 0 1.36 0 0 Z " transform="translate(60,62)" style="fill: #AA2222;"/><path d="M0 0 C1.65 0 3.3 0 5 0 C5 1.32 5 2.64 5 4 C3.35 4 1.7 4 0 4 C0 2.68 0 1.36 0 0 Z " transform="translate(42,62)" style="fill: #446622;"/><path d="M0 0 C1.32 0 2.64 0 4 0 C4 1.65 4 3.3 4 5 C2.68 5 1.36 5 0 5 C0 3.35 0 1.7 0 0 Z " transform="translate(65,57)" style="fill: #EEEE77;"/><path d="M0 0 C1.32 0 2.64 0 4 0 C4 1.65 4 3.3 4 5 C2.68 5 1.36 5 0 5 C0 3.35 0 1.7 0 0 Z " transform="translate(56,57)" style="fill: #DD5566;"/><path d="M0 0 C1.65 0 3.3 0 5 0 C5 1.32 5 2.64 5 4 C3.35 4 1.7 4 0 4 C0 2.68 0 1.36 0 0 Z " transform="translate(60,53)" style="fill: #EEEE77;"/><path d="M0 0 C1.65 0 3.3 0 5 0 C5 1.32 5 2.64 5 4 C3.35 4 1.7 4 0 4 C0 2.68 0 1.36 0 0 Z " transform="translate(60,49)" style="fill: #446622;"/><path d="M0 0 C1.32 0 2.64 0 4 0 C4 1.65 4 3.3 4 5 C2.68 5 1.36 5 0 5 C0 3.35 0 1.7 0 0 Z " transform="translate(29,44)" style="fill: #446622;"/><path d="M0 0 C1.65 0 3.3 0 5 0 C5 1.32 5 2.64 5 4 C3.35 4 1.7 4 0 4 C0 2.68 0 1.36 0 0 Z " transform="translate(33,31)" style="fill: #446622;"/><path d="M0 0 C1.32 0 2.64 0 4 0 C4 1.65 4 3.3 4 5 C2.68 5 1.36 5 0 5 C0 3.35 0 1.7 0 0 Z " transform="translate(29,26)" style="fill: #446622;"/><path d="M0 0 C0.66 0 1.32 0 2 0 C2 1.32 2 2.64 2 4 C1.34 4 0.68 4 0 4 C0 2.68 0 1.36 0 0 Z " transform="translate(83,49)" style="fill: #225500;"/></svg>